<mxfile host="Electron" agent="Mozilla/5.0 (Windows NT 10.0; Win64; x64) AppleWebKit/537.36 (KHTML, like Gecko) draw.io/28.1.2 Chrome/138.0.7204.243 Electron/37.4.0 Safari/537.36" version="28.1.2">
  <diagram name="Seite-1" id="_yRM9qvcZQtoTC_-Syxd">
    <mxGraphModel dx="868" dy="522" grid="1" gridSize="10" guides="1" tooltips="1" connect="1" arrows="1" fold="1" page="1" pageScale="1" pageWidth="900" pageHeight="500" math="0" shadow="0">
      <root>
        <mxCell id="0" />
        <mxCell id="1" parent="0" />
        <mxCell id="9cBT-bO7HC_kkBCeUAF_-1" value="Document Parser" style="rounded=0;whiteSpace=wrap;html=1;fontSize=16;fontStyle=1;align=left;verticalAlign=top;spacingLeft=5;fillColor=#dae8fc;strokeColor=#6c8ebf;" vertex="1" parent="1">
          <mxGeometry x="20" y="20" width="350" height="450" as="geometry" />
        </mxCell>
        <mxCell id="9cBT-bO7HC_kkBCeUAF_-2" value="KSP_Reference_&amp;lt;x&amp;gt;_&amp;lt;y&amp;gt;_Manual_en.pdf" style="rounded=0;whiteSpace=wrap;html=1;fontFamily=Lucida Console;fillColor=#b1ddf0;strokeColor=#10739e;fontStyle=0" vertex="1" parent="1">
          <mxGeometry x="50" y="100" width="290" height="50" as="geometry" />
        </mxCell>
        <mxCell id="9cBT-bO7HC_kkBCeUAF_-3" value="KSP_Reference_Manual_Original.txt" style="rounded=0;whiteSpace=wrap;html=1;fontFamily=Lucida Console;fillColor=#b1ddf0;strokeColor=#10739e;fontStyle=0" vertex="1" parent="1">
          <mxGeometry x="50" y="190" width="290" height="50" as="geometry" />
        </mxCell>
        <mxCell id="9cBT-bO7HC_kkBCeUAF_-4" value="KSP_Reference_Manual_Fixed.txt" style="rounded=0;whiteSpace=wrap;html=1;fontFamily=Lucida Console;fillColor=#b1ddf0;strokeColor=#10739e;fontStyle=0" vertex="1" parent="1">
          <mxGeometry x="50" y="280" width="290" height="50" as="geometry" />
        </mxCell>
        <mxCell id="9cBT-bO7HC_kkBCeUAF_-5" value="" style="rounded=0;whiteSpace=wrap;html=1;fontFamily=Lucida Console;fillColor=#b1ddf0;strokeColor=#10739e;fontStyle=0" vertex="1" parent="1">
          <mxGeometry x="70" y="370" width="290" height="50" as="geometry" />
        </mxCell>
        <mxCell id="9cBT-bO7HC_kkBCeUAF_-6" value="" style="rounded=0;whiteSpace=wrap;html=1;fontFamily=Lucida Console;fillColor=#b1ddf0;strokeColor=#10739e;fontStyle=0" vertex="1" parent="1">
          <mxGeometry x="60" y="380" width="290" height="50" as="geometry" />
        </mxCell>
        <mxCell id="9cBT-bO7HC_kkBCeUAF_-7" value="built_in_*.csv" style="rounded=0;whiteSpace=wrap;html=1;fontFamily=Lucida Console;fillColor=#b1ddf0;strokeColor=#10739e;fontStyle=0" vertex="1" parent="1">
          <mxGeometry x="50" y="390" width="290" height="50" as="geometry" />
        </mxCell>
        <mxCell id="9cBT-bO7HC_kkBCeUAF_-8" value="pdf2txt.py" style="endArrow=classic;html=1;rounded=0;align=right;labelBackgroundColor=none;fontFamily=Lucida Console;spacingRight=10;fontStyle=0" edge="1" parent="1" source="9cBT-bO7HC_kkBCeUAF_-2" target="9cBT-bO7HC_kkBCeUAF_-3">
          <mxGeometry width="50" height="50" relative="1" as="geometry">
            <mxPoint x="440" y="350" as="sourcePoint" />
            <mxPoint x="490" y="300" as="targetPoint" />
          </mxGeometry>
        </mxCell>
        <mxCell id="9cBT-bO7HC_kkBCeUAF_-9" value="Manual Fixes" style="endArrow=classic;html=1;rounded=0;labelBackgroundColor=none;align=right;spacingRight=10;fontFamily=Lucida Console;fontStyle=2" edge="1" parent="1" source="9cBT-bO7HC_kkBCeUAF_-3" target="9cBT-bO7HC_kkBCeUAF_-4">
          <mxGeometry width="50" height="50" relative="1" as="geometry">
            <mxPoint x="440" y="350" as="sourcePoint" />
            <mxPoint x="490" y="300" as="targetPoint" />
          </mxGeometry>
        </mxCell>
        <mxCell id="9cBT-bO7HC_kkBCeUAF_-10" value="txt_parser.py" style="endArrow=classic;html=1;rounded=0;labelBackgroundColor=none;align=right;spacingRight=10;fontFamily=Lucida Console;spacingTop=-18;fontStyle=0" edge="1" parent="1" source="9cBT-bO7HC_kkBCeUAF_-4" target="9cBT-bO7HC_kkBCeUAF_-7">
          <mxGeometry width="50" height="50" relative="1" as="geometry">
            <mxPoint x="440" y="350" as="sourcePoint" />
            <mxPoint x="490" y="300" as="targetPoint" />
          </mxGeometry>
        </mxCell>
        <mxCell id="9cBT-bO7HC_kkBCeUAF_-11" value="&lt;div&gt;Manual download&lt;/div&gt;&lt;div&gt;from Internet&lt;/div&gt;" style="endArrow=classic;html=1;rounded=0;align=right;labelBackgroundColor=none;spacingRight=10;fontFamily=Lucida Console;fontStyle=2;labelPosition=center;verticalLabelPosition=middle;verticalAlign=middle;" edge="1" parent="1" target="9cBT-bO7HC_kkBCeUAF_-2">
          <mxGeometry width="50" height="50" relative="1" as="geometry">
            <mxPoint x="195" y="50" as="sourcePoint" />
            <mxPoint x="225" y="43" as="targetPoint" />
          </mxGeometry>
        </mxCell>
        <mxCell id="9cBT-bO7HC_kkBCeUAF_-13" value="VS Code Extension" style="rounded=0;whiteSpace=wrap;html=1;fontSize=16;fontStyle=1;align=left;verticalAlign=top;spacingLeft=5;fillColor=#FFFFDD;strokeColor=#36393d;" vertex="1" parent="1">
          <mxGeometry x="530" y="20" width="350" height="450" as="geometry" />
        </mxCell>
        <mxCell id="9cBT-bO7HC_kkBCeUAF_-14" value="&lt;div&gt;SublimeKSP&amp;nbsp;&lt;span style=&quot;background-color: transparent; color: light-dark(rgb(0, 0, 0), rgb(255, 255, 255));&quot;&gt;Compiler (*.py)&lt;/span&gt;&lt;/div&gt;" style="rounded=0;whiteSpace=wrap;html=1;fontFamily=Lucida Console;fillColor=#ffff88;strokeColor=#36393d;fontStyle=0" vertex="1" parent="1">
          <mxGeometry x="560" y="100" width="290" height="50" as="geometry" />
        </mxCell>
        <mxCell id="9cBT-bO7HC_kkBCeUAF_-15" value="&lt;div&gt;Extension&amp;nbsp;&lt;span style=&quot;background-color: transparent; color: light-dark(rgb(0, 0, 0), rgb(255, 255, 255));&quot;&gt;Source Code (*.ts)&lt;/span&gt;&lt;/div&gt;" style="rounded=0;whiteSpace=wrap;html=1;fontFamily=Lucida Console;fillColor=#ffff88;strokeColor=#36393d;fontStyle=0" vertex="1" parent="1">
          <mxGeometry x="560" y="190" width="290" height="50" as="geometry" />
        </mxCell>
        <mxCell id="9cBT-bO7HC_kkBCeUAF_-17" value="" style="rounded=0;whiteSpace=wrap;html=1;fontFamily=Lucida Console;fillColor=#ffff88;strokeColor=#36393d;fontStyle=0" vertex="1" parent="1">
          <mxGeometry x="680" y="270" width="90" height="50" as="geometry" />
        </mxCell>
        <mxCell id="9cBT-bO7HC_kkBCeUAF_-18" value="" style="rounded=0;whiteSpace=wrap;html=1;fontFamily=Lucida Console;fillColor=#ffff88;strokeColor=#36393d;fontStyle=0" vertex="1" parent="1">
          <mxGeometry x="670" y="280" width="90" height="50" as="geometry" />
        </mxCell>
        <mxCell id="9cBT-bO7HC_kkBCeUAF_-19" value="Generated&lt;div&gt;*.ts&lt;/div&gt;" style="rounded=0;whiteSpace=wrap;html=1;fontFamily=Lucida Console;fillColor=#ffff88;strokeColor=#36393d;fontStyle=0" vertex="1" parent="1">
          <mxGeometry x="660" y="290" width="90" height="50" as="geometry" />
        </mxCell>
        <mxCell id="9cBT-bO7HC_kkBCeUAF_-20" value="ksp_compiler_wrapper.py" style="endArrow=classic;html=1;rounded=0;align=right;labelBackgroundColor=none;fontFamily=Lucida Console;spacingRight=10;fontStyle=0" edge="1" parent="1" source="9cBT-bO7HC_kkBCeUAF_-15" target="9cBT-bO7HC_kkBCeUAF_-14">
          <mxGeometry width="50" height="50" relative="1" as="geometry">
            <mxPoint x="950" y="350" as="sourcePoint" />
            <mxPoint x="1000" y="300" as="targetPoint" />
          </mxGeometry>
        </mxCell>
        <mxCell id="9cBT-bO7HC_kkBCeUAF_-21" value="" style="endArrow=classic;html=1;rounded=0;labelBackgroundColor=none;align=right;spacingRight=10;fontFamily=Lucida Console;fontStyle=2" edge="1" parent="1" source="9cBT-bO7HC_kkBCeUAF_-19" target="9cBT-bO7HC_kkBCeUAF_-15">
          <mxGeometry width="50" height="50" relative="1" as="geometry">
            <mxPoint x="950" y="350" as="sourcePoint" />
            <mxPoint x="705" y="280" as="targetPoint" />
          </mxGeometry>
        </mxCell>
        <mxCell id="9cBT-bO7HC_kkBCeUAF_-24" value="system.ini" style="rounded=0;whiteSpace=wrap;html=1;fontFamily=Lucida Console;fillColor=#cdeb8b;strokeColor=#36393d;fontStyle=0" vertex="1" parent="1">
          <mxGeometry x="400" y="220" width="100" height="50" as="geometry" />
        </mxCell>
        <mxCell id="9cBT-bO7HC_kkBCeUAF_-25" value="" style="endArrow=classic;html=1;rounded=0;exitX=0;exitY=0.5;exitDx=0;exitDy=0;fontStyle=0" edge="1" parent="1" source="9cBT-bO7HC_kkBCeUAF_-24" target="9cBT-bO7HC_kkBCeUAF_-1">
          <mxGeometry width="50" height="50" relative="1" as="geometry">
            <mxPoint x="460" y="330" as="sourcePoint" />
            <mxPoint x="510" y="280" as="targetPoint" />
          </mxGeometry>
        </mxCell>
        <mxCell id="9cBT-bO7HC_kkBCeUAF_-26" value="" style="endArrow=classic;html=1;rounded=0;exitX=1;exitY=0.5;exitDx=0;exitDy=0;fontStyle=0" edge="1" parent="1" source="9cBT-bO7HC_kkBCeUAF_-24" target="9cBT-bO7HC_kkBCeUAF_-13">
          <mxGeometry width="50" height="50" relative="1" as="geometry">
            <mxPoint x="520" y="280" as="sourcePoint" />
            <mxPoint x="240" y="269" as="targetPoint" />
          </mxGeometry>
        </mxCell>
        <mxCell id="9cBT-bO7HC_kkBCeUAF_-27" value="" style="rounded=0;whiteSpace=wrap;html=1;fontFamily=Lucida Console;fillColor=#ffff88;strokeColor=#36393d;fontStyle=0" vertex="1" parent="1">
          <mxGeometry x="780" y="379" width="90" height="50" as="geometry" />
        </mxCell>
        <mxCell id="9cBT-bO7HC_kkBCeUAF_-28" value="" style="rounded=0;whiteSpace=wrap;html=1;fontFamily=Lucida Console;fillColor=#ffff88;strokeColor=#36393d;fontStyle=0" vertex="1" parent="1">
          <mxGeometry x="770" y="389" width="90" height="50" as="geometry" />
        </mxCell>
        <mxCell id="9cBT-bO7HC_kkBCeUAF_-29" value="Generated&lt;div&gt;*.json&lt;/div&gt;" style="rounded=0;whiteSpace=wrap;html=1;fontFamily=Lucida Console;fillColor=#ffff88;strokeColor=#36393d;fontStyle=0" vertex="1" parent="1">
          <mxGeometry x="760" y="399" width="90" height="50" as="geometry" />
        </mxCell>
        <mxCell id="9cBT-bO7HC_kkBCeUAF_-30" value="" style="rounded=0;whiteSpace=wrap;html=1;fontFamily=Lucida Console;fillColor=#ffff88;strokeColor=#36393d;fontStyle=0" vertex="1" parent="1">
          <mxGeometry x="565" y="379" width="90" height="50" as="geometry" />
        </mxCell>
        <mxCell id="9cBT-bO7HC_kkBCeUAF_-31" value="" style="rounded=0;whiteSpace=wrap;html=1;fontFamily=Lucida Console;fillColor=#ffff88;strokeColor=#36393d;fontStyle=0" vertex="1" parent="1">
          <mxGeometry x="555" y="389" width="90" height="50" as="geometry" />
        </mxCell>
        <mxCell id="9cBT-bO7HC_kkBCeUAF_-32" value="*.yaml" style="rounded=0;whiteSpace=wrap;html=1;fontFamily=Lucida Console;fillColor=#ffff88;strokeColor=#36393d;fontStyle=0" vertex="1" parent="1">
          <mxGeometry x="545" y="399" width="90" height="50" as="geometry" />
        </mxCell>
        <mxCell id="9cBT-bO7HC_kkBCeUAF_-33" value="pre_build.py" style="curved=1;endArrow=classic;html=1;rounded=0;exitX=1;exitY=0.5;exitDx=0;exitDy=0;entryX=0;entryY=0.5;entryDx=0;entryDy=0;fontFamily=Lucida Console;labelBackgroundColor=none;" edge="1" parent="1" source="9cBT-bO7HC_kkBCeUAF_-7" target="9cBT-bO7HC_kkBCeUAF_-19">
          <mxGeometry x="0.6798" y="-23" width="50" height="50" relative="1" as="geometry">
            <mxPoint x="470" y="330" as="sourcePoint" />
            <mxPoint x="650" y="310" as="targetPoint" />
            <Array as="points">
              <mxPoint x="470" y="415" />
              <mxPoint x="470" y="320" />
            </Array>
            <mxPoint as="offset" />
          </mxGeometry>
        </mxCell>
        <mxCell id="9cBT-bO7HC_kkBCeUAF_-34" value="&lt;div&gt;Grammar&lt;/div&gt;&lt;div&gt;Snippets&lt;/div&gt;&lt;div&gt;Language Cfg&lt;/div&gt;" style="curved=1;endArrow=classic;html=1;rounded=0;exitX=0.5;exitY=0;exitDx=0;exitDy=0;entryX=0.5;entryY=0;entryDx=0;entryDy=0;labelBackgroundColor=none;fontFamily=Lucida Console;fontStyle=2" edge="1" parent="1" source="9cBT-bO7HC_kkBCeUAF_-32" target="9cBT-bO7HC_kkBCeUAF_-29">
          <mxGeometry x="0.0494" y="-36" width="50" height="50" relative="1" as="geometry">
            <mxPoint x="470" y="330" as="sourcePoint" />
            <mxPoint x="520" y="280" as="targetPoint" />
            <Array as="points">
              <mxPoint x="595" y="350" />
              <mxPoint x="800" y="350" />
            </Array>
            <mxPoint as="offset" />
          </mxGeometry>
        </mxCell>
      </root>
    </mxGraphModel>
  </diagram>
</mxfile>
